<svg width="17" height="16" viewBox="0 0 17 16" fill="none" xmlns="http://www.w3.org/2000/svg">
<path d="M8.66999 14.795C8.45905 15.0057 8.17311 15.124 7.87499 15.124C7.57686 15.124 7.29092 15.0057 7.07999 14.795L0.704987 8.42C0.494311 8.20906 0.375977 7.92312 0.375977 7.625C0.375977 7.32687 0.494311 7.04094 0.704987 6.83L7.07999 0.454998C7.29338 0.256386 7.57546 0.14823 7.86693 0.153265C8.15841 0.1583 8.43658 0.276134 8.64299 0.481998C8.84885 0.688403 8.96668 0.966578 8.97172 1.25805C8.97676 1.54953 8.8686 1.83161 8.66999 2.045L4.21499 6.5L15.375 6.5C15.6734 6.5 15.9595 6.61853 16.1705 6.8295C16.3815 7.04048 16.5 7.32663 16.5 7.625C16.5 7.92337 16.3815 8.20952 16.1705 8.42049C15.9595 8.63147 15.6734 8.75 15.375 8.75L4.21499 8.75L8.66999 13.205C8.88066 13.4159 8.999 13.7019 8.999 14C8.999 14.2981 8.88066 14.5841 8.66999 14.795Z" fill="black"/>
</svg>
