<svg width="32" height="32" viewBox="0 0 32 32" fill="none" xmlns="http://www.w3.org/2000/svg">
<path d="M12.6664 2.66669C13.1042 2.66669 13.5376 2.75291 13.9421 2.92042C14.3465 3.08794 14.7139 3.33347 15.0235 3.643C15.333 3.95253 15.5785 4.31999 15.746 4.72441C15.9136 5.12883 15.9998 5.56228 15.9998 6.00002V26C15.998 26.8318 15.6852 27.6329 15.123 28.246C14.5607 28.859 13.7896 29.2396 12.961 29.3131C12.1324 29.3866 11.3063 29.1477 10.6449 28.6432C9.98352 28.1387 9.53464 27.4052 9.38645 26.5867C8.82793 26.711 8.24681 26.6895 7.69903 26.5242C7.15124 26.3588 6.65524 26.0553 6.25876 25.6427C5.86227 25.2302 5.57867 24.7225 5.43523 24.1686C5.2918 23.6147 5.29336 23.0332 5.43978 22.48C4.67291 22.2337 3.99827 21.7616 3.50416 21.1255C3.01005 20.4894 2.71948 19.7189 2.67049 18.915C2.62151 18.111 2.81638 17.3109 3.2296 16.6196C3.64283 15.9282 4.25516 15.3776 4.98645 15.04C4.55165 14.6105 4.24332 14.0697 4.09517 13.4767C3.94702 12.8837 3.96475 12.2614 4.14643 11.6779C4.3281 11.0943 4.66673 10.5719 5.12528 10.1678C5.58384 9.76375 6.14467 9.49352 6.74645 9.38669C6.64937 8.95018 6.64111 8.4986 6.72216 8.05883C6.80321 7.61906 6.97192 7.20009 7.21825 6.82688C7.46457 6.45366 7.78347 6.13382 8.15596 5.8864C8.52845 5.63898 8.94692 5.46904 9.38645 5.38669C9.52965 4.62171 9.93601 3.93096 10.5351 3.43416C11.1342 2.93737 11.8882 2.66585 12.6664 2.66669Z" stroke="white" stroke-width="2" stroke-linecap="round" stroke-linejoin="round"/>
<path d="M19.3333 2.66669C18.4493 2.66669 17.6014 3.01788 16.9763 3.643C16.3512 4.26812 16 5.11597 16 6.00002V26C16.0018 26.8318 16.3145 27.6329 16.8768 28.246C17.4391 28.859 18.2102 29.2396 19.0388 29.3131C19.8674 29.3866 20.6935 29.1477 21.3549 28.6432C22.0163 28.1387 22.4651 27.4052 22.6133 26.5867C23.1718 26.711 23.753 26.6895 24.3008 26.5242C24.8485 26.3588 25.3445 26.0553 25.741 25.6427C26.1375 25.2302 26.4211 24.7225 26.5646 24.1686C26.708 23.6147 26.7064 23.0332 26.56 22.48C27.3269 22.2337 28.0015 21.7616 28.4956 21.1255C28.9897 20.4894 29.2803 19.7189 29.3293 18.915C29.3783 18.111 29.1834 17.3109 28.7702 16.6196C28.357 15.9282 27.7446 15.3776 27.0133 15.04C27.4481 14.6105 27.7565 14.0697 27.9046 13.4767C28.0528 12.8837 28.035 12.2614 27.8534 11.6779C27.6717 11.0943 27.3331 10.5719 26.8745 10.1678C26.4159 9.76375 25.8551 9.49352 25.2533 9.38669C25.3504 8.95018 25.3587 8.4986 25.2776 8.05883C25.1966 7.61906 25.0279 7.20009 24.7815 6.82688C24.5352 6.45366 24.2163 6.13382 23.8438 5.8864C23.4713 5.63898 23.0529 5.46904 22.6133 5.38669C22.4701 4.62171 22.0638 3.93096 21.4647 3.43416C20.8656 2.93737 20.1116 2.66585 19.3333 2.66669Z" stroke="white" stroke-width="2" stroke-linecap="round" stroke-linejoin="round"/>
</svg>
