<svg width="24" height="27" viewBox="0 0 24 27" fill="none" xmlns="http://www.w3.org/2000/svg">
<path d="M22.68 0.964355H1.32C0.969914 0.964355 0.634167 1.10963 0.386619 1.36823C0.139071 1.62682 0 1.97755 0 2.34326V24.6565C0 25.0222 0.139071 25.3729 0.386619 25.6315C0.634167 25.8901 0.969914 26.0354 1.32 26.0354H12.816V16.3204H9.696V12.5597H12.816V9.73922C12.7514 9.07704 12.8262 8.4081 13.0353 7.77934C13.2443 7.15057 13.5825 6.57719 14.0262 6.09942C14.4698 5.62165 15.0081 5.25105 15.6034 5.01363C16.1987 4.7762 16.8364 4.67769 17.472 4.72501C18.406 4.71901 19.3395 4.76923 20.268 4.87544V8.26003H18.36C16.848 8.26003 16.56 9.01216 16.56 10.1027V12.5221H20.16L19.692 16.2828H16.56V26.0354H22.68C22.8533 26.0354 23.025 25.9997 23.1851 25.9304C23.3453 25.8611 23.4908 25.7596 23.6134 25.6315C23.736 25.5035 23.8332 25.3515 23.8995 25.1842C23.9659 25.0169 24 24.8376 24 24.6565V2.34326C24 2.16218 23.9659 1.98287 23.8995 1.81558C23.8332 1.64828 23.736 1.49627 23.6134 1.36823C23.4908 1.24018 23.3453 1.13862 23.1851 1.06932C23.025 1.00002 22.8533 0.964355 22.68 0.964355Z" fill="black"/>
</svg>
