<svg width="32" height="32" viewBox="0 0 32 32" fill="none" xmlns="http://www.w3.org/2000/svg">
<path d="M28 10V8.00004C28 7.2928 27.719 6.61452 27.219 6.11442C26.7189 5.61433 26.0406 5.33337 25.3333 5.33337H6.66667C5.95942 5.33337 5.28115 5.61433 4.78105 6.11442C4.28095 6.61452 4 7.2928 4 8.00004V26.6667C4 27.374 4.28095 28.0522 4.78105 28.5523C5.28115 29.0524 5.95942 29.3334 6.66667 29.3334H11.3333" stroke="white" stroke-width="2" stroke-linecap="round" stroke-linejoin="round"/>
<path d="M21.3335 2.66663V7.99996" stroke="white" stroke-width="2" stroke-linecap="round" stroke-linejoin="round"/>
<path d="M10.6665 2.66663V7.99996" stroke="white" stroke-width="2" stroke-linecap="round" stroke-linejoin="round"/>
<path d="M4 13.3334H10.6667" stroke="white" stroke-width="2" stroke-linecap="round" stroke-linejoin="round"/>
<path d="M23.3335 23.3333L21.3335 21.6666V18.6666" stroke="white" stroke-width="2" stroke-linecap="round" stroke-linejoin="round"/>
<path d="M29.3335 21.3334C29.3335 23.4551 28.4906 25.4899 26.9904 26.9902C25.4901 28.4905 23.4552 29.3334 21.3335 29.3334C19.2118 29.3334 17.1769 28.4905 15.6766 26.9902C14.1764 25.4899 13.3335 23.4551 13.3335 21.3334C13.3335 19.2116 14.1764 17.1768 15.6766 15.6765C17.1769 14.1762 19.2118 13.3334 21.3335 13.3334C23.4552 13.3334 25.4901 14.1762 26.9904 15.6765C28.4906 17.1768 29.3335 19.2116 29.3335 21.3334Z" stroke="white" stroke-width="2" stroke-linecap="round" stroke-linejoin="round"/>
</svg>
